<svg width="188" height="141" viewBox="0 0 188 141" fill="none" xmlns="http://www.w3.org/2000/svg">
<mask id="mask0_2_70" style="mask-type:luminance" maskUnits="userSpaceOnUse" x="0" y="0" width="188" height="141">
<path d="M0 0H187.873V140.905H0V0Z" fill="white"/>
</mask>
<g mask="url(#mask0_2_70)">
<path fill-rule="evenodd" clip-rule="evenodd" d="M0 0V140.905H187.873V0H0Z" fill="#3D58DB"/>
<mask id="mask1_2_70" style="mask-type:luminance" maskUnits="userSpaceOnUse" x="0" y="0" width="188" height="141">
<path fill-rule="evenodd" clip-rule="evenodd" d="M0 0V140.905H187.873V0H0Z" fill="white"/>
</mask>
<g mask="url(#mask1_2_70)">
<path fill-rule="evenodd" clip-rule="evenodd" d="M0 0V46.9682H187.873V0H0Z" fill="#F7FCFF"/>
<path fill-rule="evenodd" clip-rule="evenodd" d="M0 93.9364V140.905H187.873V93.9364H0Z" fill="#E31D1C"/>
<path d="M91.6108 35.4039L94.5299 35.0933L94.2504 32.4684H91.6108H37.2506H34.5064L34.3217 35.2064L34.3213 35.2129L34.3201 35.2309L34.3154 35.3009L34.2975 35.5725L34.231 36.6069C34.1742 37.5016 34.0947 38.7888 34.0032 40.3619C33.8202 43.5073 33.589 47.8003 33.3963 52.3865C33.0166 61.4256 32.7648 72.0076 33.4224 76.9492C34.7057 86.5924 40.5775 108.239 63.2884 118.05L64.4732 118.561L65.6509 118.035C87.2222 108.389 94.4371 88.9643 96.101 76.9651C96.9411 70.9097 96.5143 60.3137 95.9249 51.5081C95.626 47.046 95.2773 42.9459 95.0037 39.9623C94.8669 38.4699 94.7489 37.2554 94.6649 36.4128C94.6227 35.9914 94.5892 35.6629 94.5663 35.4391L94.5393 35.1834L94.5323 35.1171L94.5305 35.0998L94.5299 35.0933C94.5299 35.093 94.5299 35.0933 91.6108 35.4039Z" fill="#E31D1C"/>
<path d="M94.5299 35.0933L91.6108 35.4039C94.5299 35.0933 94.5299 35.093 94.5299 35.0933ZM94.5299 35.0933L94.2504 32.4684H91.6108H37.2506H34.5064L34.3217 35.2064M94.5299 35.0933L94.5305 35.0998L94.5323 35.1171L94.5393 35.1834L94.5663 35.4391C94.5892 35.6629 94.6227 35.9914 94.6649 36.4128C94.7489 37.2554 94.8669 38.4699 95.0037 39.9623C95.2773 42.9459 95.626 47.046 95.9249 51.5081C96.5143 60.3137 96.9411 70.9097 96.101 76.9651C94.4371 88.9643 87.2222 108.389 65.6509 118.035L64.4732 118.561L63.2884 118.05C40.5775 108.239 34.7057 86.5924 33.4224 76.9492C32.7648 72.0076 33.0166 61.4256 33.3963 52.3865C33.589 47.8003 33.8202 43.5073 34.0032 40.3619C34.0947 38.7888 34.1742 37.5016 34.231 36.6069L34.2975 35.5725L34.3154 35.3009L34.3201 35.2309L34.3213 35.2129L34.3217 35.2064M34.3217 35.2064L37.2506 35.4039" stroke="white" stroke-width="5.87103"/>
<mask id="mask2_2_70" style="mask-type:luminance" maskUnits="userSpaceOnUse" x="30" y="29" width="70" height="93">
<path d="M91.6108 35.4039L94.5299 35.0933L94.2504 32.4684H91.6108H37.2506H34.5064L34.3217 35.2064L34.3213 35.2129L34.3201 35.2309L34.3154 35.3009L34.2975 35.5725L34.231 36.6069C34.1742 37.5016 34.0947 38.7888 34.0032 40.3619C33.8202 43.5073 33.589 47.8003 33.3963 52.3865C33.0166 61.4256 32.7648 72.0076 33.4224 76.9492C34.7057 86.5924 40.5775 108.239 63.2884 118.05L64.4732 118.561L65.6509 118.035C87.2222 108.389 94.4371 88.9643 96.101 76.9651C96.9411 70.9097 96.5143 60.3137 95.9249 51.5081C95.626 47.046 95.2773 42.9459 95.0037 39.9623C94.8669 38.4699 94.7489 37.2554 94.6649 36.4128C94.6227 35.9914 94.5892 35.6629 94.5663 35.4391L94.5393 35.1834L94.5323 35.1171L94.5305 35.0998L94.5299 35.0933C94.5299 35.093 94.5299 35.0933 91.6108 35.4039Z" fill="white"/>
<path d="M94.5299 35.0933L91.6108 35.4039C94.5299 35.0933 94.5299 35.093 94.5299 35.0933ZM94.5299 35.0933L94.2504 32.4684H91.6108H37.2506H34.5064L34.3217 35.2064M94.5299 35.0933L94.5305 35.0998L94.5323 35.1171L94.5393 35.1834L94.5663 35.4391C94.5892 35.6629 94.6227 35.9914 94.6649 36.4128C94.7489 37.2554 94.8669 38.4699 95.0037 39.9623C95.2773 42.9459 95.626 47.046 95.9249 51.5081C96.5143 60.3137 96.9411 70.9097 96.101 76.9651C94.4371 88.9643 87.2222 108.389 65.6509 118.035L64.4732 118.561L63.2884 118.05C40.5775 108.239 34.7057 86.5924 33.4224 76.9492C32.7648 72.0076 33.0166 61.4256 33.3963 52.3865C33.589 47.8003 33.8202 43.5073 34.0032 40.3619C34.0947 38.7888 34.1742 37.5016 34.231 36.6069L34.2975 35.5725L34.3154 35.3009L34.3201 35.2309L34.3213 35.2129L34.3217 35.2064M34.3217 35.2064L37.2506 35.4039" stroke="white" stroke-width="5.87103"/>
</mask>
<g mask="url(#mask2_2_70)">
<path fill-rule="evenodd" clip-rule="evenodd" d="M60.2196 38.6877C60.2196 38.6877 61.432 40.5348 61.9745 43.3593C62.5175 46.1838 62.6109 51.1325 62.6109 51.1325L51.1104 49.7165V58.4367L62.8681 56.9393L62.6767 65.2159C62.6767 65.2159 59.1593 65.5805 56.2745 65.2159C53.3896 64.8513 47.7063 63.3237 47.7063 63.3237V73.3068C47.7063 73.3068 53.4805 71.4592 56.2745 71.0353C59.0683 70.6114 62.6767 71.0353 62.6767 71.0353V83.2963H67.4504V71.0353C67.4504 71.0353 72.668 70.582 75.7808 71.0728C78.8936 71.5642 81.8461 73.3068 81.8461 73.3068V63.3237C81.8461 63.3237 78.8548 64.8137 76.0332 65.1848C73.2122 65.5558 67.4504 65.2159 67.4504 65.2159L67.6412 56.9393C67.6412 56.9393 71.5472 56.535 73.7383 56.8324C75.9293 57.1299 78.6717 58.4367 78.6717 58.4367V49.7165C78.6717 49.7165 75.9986 51.171 73.8956 51.4349C71.7926 51.6987 67.3846 51.1325 67.3846 51.1325C67.3846 51.1325 67.4627 46.0255 67.9148 43.5388C68.3668 41.0521 69.6473 38.6877 69.6473 38.6877H60.2196Z" fill="#F7FCFF"/>
<path fill-rule="evenodd" clip-rule="evenodd" d="M40.4944 95.376C40.4944 95.376 43.0746 89.8384 47.2732 88.7852C51.4718 87.7325 55.8744 92.0806 55.8744 92.0806C55.8744 92.0806 58.5627 83.2952 65.1155 83.2952C71.6681 83.2952 73.9678 92.0806 73.9678 92.0806C73.9678 92.0806 76.7636 88.7852 80.7841 88.7852C84.804 88.7852 88.5291 95.376 88.5291 95.376C88.5291 95.376 76.5205 117.178 64.5119 117.178C52.503 117.178 40.4944 95.376 40.4944 95.376Z" fill="#2E42A5"/>
</g>
</g>
</g>
</svg>
