<svg width="188" height="141" viewBox="0 0 188 141" fill="none" xmlns="http://www.w3.org/2000/svg">
<mask id="mask0_2_49" style="mask-type:luminance" maskUnits="userSpaceOnUse" x="0" y="0" width="188" height="141">
<path d="M0 0H187.873V140.905H0V0Z" fill="white"/>
</mask>
<g mask="url(#mask0_2_49)">
<path fill-rule="evenodd" clip-rule="evenodd" d="M0 0V140.905H187.873V0H0Z" fill="#2E42A5"/>
<mask id="mask1_2_49" style="mask-type:luminance" maskUnits="userSpaceOnUse" x="0" y="0" width="188" height="141">
<path fill-rule="evenodd" clip-rule="evenodd" d="M0 0V140.905H187.873V0H0Z" fill="white"/>
</mask>
<g mask="url(#mask1_2_49)">
<mask id="mask2_2_49" style="mask-type:luminance" maskUnits="userSpaceOnUse" x="0" y="0" width="188" height="141">
<path d="M0 0H187.873V140.905H0V0Z" fill="white"/>
</mask>
<g mask="url(#mask2_2_49)">
<path d="M-20.9198 130.838L20.4221 148.322L188.81 19.0092L210.617 -6.97287L166.408 -12.8167L97.7268 42.908L42.4449 80.4536L-20.9198 130.838Z" fill="white"/>
<path d="M-15.2603 143.088L5.80154 153.234L202.786 -9.3869H173.213L-15.2603 143.088Z" fill="#F50100"/>
<path d="M208.791 130.838L167.449 148.322L-0.939029 19.0092L-22.746 -6.97287L21.4633 -12.8167L90.1447 42.908L145.426 80.4536L208.791 130.838Z" fill="white"/>
<path d="M207.381 139.63L186.32 149.776L102.441 80.1501L77.5729 72.3704L-24.8436 -6.88354H4.72959L107.089 70.4893L134.278 79.8178L207.381 139.63Z" fill="#F50100"/>
<path fill-rule="evenodd" clip-rule="evenodd" d="M116.115 -11.7421H71.7568V46.9682H-11.5808V93.9364H71.7568V152.647H116.115V93.9364H199.776V46.9682H116.115V-11.7421Z" fill="#F50100"/>
<mask id="mask3_2_49" style="mask-type:luminance" maskUnits="userSpaceOnUse" x="-12" y="-12" width="212" height="165">
<path fill-rule="evenodd" clip-rule="evenodd" d="M116.115 -11.7421H71.7568V46.9682H-11.5808V93.9364H71.7568V152.647H116.115V93.9364H199.776V46.9682H116.115V-11.7421Z" fill="white"/>
</mask>
<g mask="url(#mask3_2_49)">
<path d="M71.7568 -11.7421V-23.4841H60.0147V-11.7421H71.7568ZM116.115 -11.7421H127.857V-23.4841H116.115V-11.7421ZM71.7568 46.9682V58.7102H83.4988V46.9682H71.7568ZM-11.5808 46.9682V35.2261H-23.3229V46.9682H-11.5808ZM-11.5808 93.9364H-23.3229V105.678H-11.5808V93.9364ZM71.7568 93.9364H83.4988V82.1943H71.7568V93.9364ZM71.7568 152.647H60.0147V164.389H71.7568V152.647ZM116.115 152.647V164.389H127.857V152.647H116.115ZM116.115 93.9364V82.1943H104.373V93.9364H116.115ZM199.776 93.9364V105.678H211.518V93.9364H199.776ZM199.776 46.9682H211.518V35.2261H199.776V46.9682ZM116.115 46.9682H104.373V58.7102H116.115V46.9682ZM71.7568 -3.05176e-05H116.115V-23.4841H71.7568V-3.05176e-05ZM83.4988 46.9682V-11.7421H60.0147V46.9682H83.4988ZM-11.5808 58.7102H71.7568V35.2261H-11.5808V58.7102ZM0.161199 93.9364V46.9682H-23.3229V93.9364H0.161199ZM71.7568 82.1943H-11.5808V105.678H71.7568V82.1943ZM83.4988 152.647V93.9364H60.0147V152.647H83.4988ZM116.115 140.905H71.7568V164.389H116.115V140.905ZM104.373 93.9364V152.647H127.857V93.9364H104.373ZM199.776 82.1943H116.115V105.678H199.776V82.1943ZM188.034 46.9682V93.9364H211.518V46.9682H188.034ZM116.115 58.7102H199.776V35.2261H116.115V58.7102ZM104.373 -11.7421V46.9682H127.857V-11.7421H104.373Z" fill="white"/>
</g>
</g>
</g>
</g>
</svg>
