<svg width="173" height="102" viewBox="0 0 173 102" fill="none" xmlns="http://www.w3.org/2000/svg">
<path d="M0.710938 39.0547C2.11719 38.8516 3.00781 38.6719 3.38281 38.5156C3.97656 38.2344 4.34375 37.7578 4.48438 37.0859L11.3281 4.46094H13.0625L26.0234 33.0781L38.5859 4.46094H40.1797L46.7656 34.7656C47.1406 36.6094 47.6094 37.7578 48.1719 38.2109C48.4844 38.4766 48.8906 38.6562 49.3906 38.75C49.8906 38.8438 50.5469 38.9453 51.3594 39.0547V41H38.0234V39.0547C39.6797 38.7891 40.6875 38.5547 41.0469 38.3516C41.625 38.0391 41.9141 37.4453 41.9141 36.5703C41.9141 36.3359 41.8906 36.0625 41.8438 35.75L41.7266 34.7656L37.9531 15.125L26 42.1719H24.4297L12.2422 15.125L8.21094 36.2422C8.16406 36.5234 8.14062 36.8047 8.14062 37.0859C8.14062 37.3516 8.21094 37.6016 8.35156 37.8359C8.49219 38.0703 8.73438 38.2656 9.07812 38.4219C9.73438 38.7188 10.9297 38.9297 12.6641 39.0547V41H0.710938V39.0547ZM62.5625 17.0469C62.2969 17.5312 62.1641 18.0938 62.1641 18.7344C62.1641 19.3594 62.4609 20.1172 63.0547 21.0078L61.4609 21.9688C59.6172 21.6562 58.2812 20.8828 57.4531 19.6484C57.1562 19.2266 57.0078 18.6797 57.0078 18.0078C57.0078 17.3359 57.2812 16.6406 57.8281 15.9219C58.375 15.1875 59.1406 14.5469 60.125 14C62.2812 12.8125 65 12.2188 68.2812 12.2188C73.625 12.2188 76.9453 13.7656 78.2422 16.8594C78.6484 17.8281 78.8516 18.8984 78.8516 20.0703V34.7656C78.8516 36.5781 79.0234 37.6719 79.3672 38.0469C79.7109 38.4062 80.125 38.6406 80.6094 38.75C81.1094 38.8594 81.7734 38.9531 82.6016 39.0312V41H76.7891C75.6328 41 74.3125 41.0625 72.8281 41.1875C69.7812 41.4688 67.4375 41.6094 65.7969 41.6094C64.1562 41.6094 62.7109 41.3906 61.4609 40.9531C60.2109 40.5156 59.1875 39.9375 58.3906 39.2188C56.8438 37.8281 56.0703 36.0547 56.0703 33.8984C56.0703 31.5703 57.4219 29.4219 60.125 27.4531C63.375 25.0469 68.0391 23.7812 74.1172 23.6562V19.5547C74.1172 16.3047 71.9531 14.6797 67.625 14.6797C65.1562 14.6797 63.4688 15.4688 62.5625 17.0469ZM74.1172 26.0938H74.1641L74.1172 26.0703V26.0938ZM74.1172 26.0938C65.6641 26.5938 61.4375 29.1953 61.4375 33.8984C61.4375 36.3828 62.6953 37.9844 65.2109 38.7031C65.9922 38.9375 66.9688 39.0547 68.1406 39.0547C69.3125 39.0547 70.3047 38.9922 71.1172 38.8672C71.9453 38.7266 72.5781 38.4844 73.0156 38.1406C73.4688 37.7969 73.7656 37.3281 73.9062 36.7344C74.0469 36.125 74.1172 35.3438 74.1172 34.3906V26.0938ZM103.602 21.1953C104.477 20.3516 104.914 19.0703 104.914 17.3516C104.914 16.5078 104.516 15.8438 103.719 15.3594C103.047 14.9688 102.023 14.7734 100.648 14.7734C97.6797 14.7734 96.1953 15.7422 96.1953 17.6797V35.4922C96.1953 36.1641 96.2578 36.7188 96.3828 37.1562C96.5234 37.5938 96.8281 37.9453 97.2969 38.2109C98.1094 38.6797 99.9844 38.9609 102.922 39.0547V41H87.2656V39.0781L87.3125 39.0547C89.1562 38.8672 90.2578 38.6094 90.6172 38.2812C90.9922 37.9375 91.2188 37.5469 91.2969 37.1094C91.3906 36.6562 91.4375 36.0547 91.4375 35.3047V19.0625C91.4375 17.3594 91.2656 16.3047 90.9219 15.8984C90.5938 15.4922 90.1875 15.2109 89.7031 15.0547C89.2188 14.8984 88.5781 14.7734 87.7812 14.6797V12.6875H92.6328C94.5547 12.6875 95.9219 12.6484 96.7344 12.5703C97.5469 12.4922 98.1875 12.4375 98.6562 12.4062C100.062 12.2812 101.203 12.2188 102.078 12.2188C102.969 12.2188 103.883 12.2891 104.82 12.4297C105.758 12.5703 106.586 12.8125 107.305 13.1562C108.883 13.9062 109.672 15.0703 109.672 16.6484C109.672 17.9141 109.156 19.0938 108.125 20.1875C107.156 21.2188 106.078 21.8984 104.891 22.2266L103.602 21.1953ZM137.047 37.5078C134.906 40.1484 131.695 41.4688 127.414 41.4688C123.289 41.4688 120.062 40.1328 117.734 37.4609C115.5 34.8828 114.383 31.4766 114.383 27.2422C114.383 22.8828 115.625 19.2812 118.109 16.4375C120.578 13.625 123.742 12.2188 127.602 12.2188C130.555 12.2188 132.859 12.8438 134.516 14.0938C136.094 15.2656 136.883 16.875 136.883 18.9219C136.883 21.5625 135.602 23.7891 133.039 25.6016C130.055 27.7109 125.539 28.7891 119.492 28.8359C120.039 35.2266 122.93 38.4219 128.164 38.4219C131.445 38.4219 133.961 37.6719 135.711 36.1719L137.047 37.5078ZM119.422 26.3281C124.984 26.2188 128.75 24.8984 130.719 22.3672C131.438 21.4297 131.797 20.2656 131.797 18.875C131.797 17.0625 131.016 15.8125 129.453 15.125C128.844 14.8594 128.086 14.7266 127.18 14.7266C126.273 14.7266 125.469 14.8906 124.766 15.2188C124.062 15.5312 123.43 15.9688 122.867 16.5312C122.305 17.0781 121.812 17.7266 121.391 18.4766C120.969 19.2109 120.617 20.0078 120.336 20.8672C119.758 22.6328 119.453 24.4531 119.422 26.3281ZM141.922 39.0547L142.719 38.9375C144.141 38.75 145 38.4922 145.297 38.1641C145.734 37.6641 145.953 36.5312 145.953 34.7656V7.0625C145.953 5.29688 145.766 4.23438 145.391 3.875C145.031 3.51562 144.586 3.28906 144.055 3.19531C143.523 3.08594 142.812 2.99219 141.922 2.91406V0.921875H154.766V2.91406C153.875 3.00781 153.164 3.10156 152.633 3.19531C152.102 3.28906 151.695 3.46875 151.414 3.73438C150.945 4.15625 150.711 5.26562 150.711 7.0625V34.7656C150.711 36.5469 150.852 37.6094 151.133 37.9531C151.43 38.2812 151.781 38.5 152.188 38.6094C152.609 38.7031 153.172 38.8047 153.875 38.9141L154.766 39.0547V41H141.922V39.0547ZM152.352 25.7656L159.969 18.4062L160.578 17.8438C160.781 17.6562 160.977 17.4688 161.164 17.2812L161.68 16.7188C162.023 16.3438 162.195 16.0391 162.195 15.8047C162.195 15.5547 162.109 15.3594 161.938 15.2188C161.781 15.0625 161.57 14.9531 161.305 14.8906C160.867 14.7656 160.258 14.7031 159.477 14.7031V12.6641H171.898V14.5625C169.305 14.8438 167.148 15.8516 165.43 17.5859L158.258 24.8516L172.625 44.8672L171.031 46.2031L152.352 25.7656ZM32.7266 99.0547C33.6172 98.9297 34.3125 98.8125 34.8125 98.7031C35.3281 98.5781 35.7109 98.3828 35.9609 98.1172C36.2266 97.8359 36.3906 97.4375 36.4531 96.9219C36.5156 96.4062 36.5469 95.6953 36.5469 94.7891V71.3047C36.5469 69.5391 36.3672 68.4844 36.0078 68.1406C35.6484 67.7812 35.2031 67.5547 34.6719 67.4609C34.1406 67.3516 33.4297 67.2578 32.5391 67.1797V65.1406H45.2656V67.1797C44.375 67.2734 43.6641 67.3672 43.1328 67.4609C42.6016 67.5391 42.1953 67.7031 41.9141 67.9531C41.4609 68.375 41.2344 69.4922 41.2344 71.3047V81.1016H58.6953V71.3047C58.6953 69.5234 58.5078 68.4609 58.1328 68.1172C57.7734 67.7734 57.3281 67.5547 56.7969 67.4609C56.2656 67.3516 55.5547 67.2578 54.6641 67.1797V65.1406H67.4375V67.1797C66.5625 67.2734 65.8594 67.3672 65.3281 67.4609C64.7969 67.5391 64.3906 67.7031 64.1094 67.9531C63.6406 68.3906 63.4062 69.5078 63.4062 71.3047V94.7891C63.4062 95.6953 63.4375 96.4062 63.5 96.9219C63.5781 97.4219 63.75 97.8047 64.0156 98.0703C64.2969 98.3359 64.7031 98.5312 65.2344 98.6562C65.7812 98.7812 66.5156 98.9141 67.4375 99.0547V101H54.6641V99.0547C55.5391 98.9297 56.2422 98.8125 56.7734 98.7031C57.3047 98.5781 57.7109 98.375 57.9922 98.0938C58.4609 97.6406 58.6953 96.5391 58.6953 94.7891V83.75H41.2344V94.7891C41.2344 96.5547 41.4062 97.6094 41.75 97.9531C42.1094 98.2969 42.5547 98.5312 43.0859 98.6562C43.6172 98.7812 44.3438 98.9141 45.2656 99.0547V101H32.7266V99.0547ZM89.5156 81.1953C90.3906 80.3516 90.8281 79.0703 90.8281 77.3516C90.8281 76.5078 90.4297 75.8438 89.6328 75.3594C88.9609 74.9688 87.9375 74.7734 86.5625 74.7734C83.5938 74.7734 82.1094 75.7422 82.1094 77.6797V95.4922C82.1094 96.1641 82.1719 96.7188 82.2969 97.1562C82.4375 97.5938 82.7422 97.9453 83.2109 98.2109C84.0234 98.6797 85.8984 98.9609 88.8359 99.0547V101H73.1797V99.0781L73.2266 99.0547C75.0703 98.8672 76.1719 98.6094 76.5312 98.2812C76.9062 97.9375 77.1328 97.5469 77.2109 97.1094C77.3047 96.6562 77.3516 96.0547 77.3516 95.3047V79.0625C77.3516 77.3594 77.1797 76.3047 76.8359 75.8984C76.5078 75.4922 76.1016 75.2109 75.6172 75.0547C75.1328 74.8984 74.4922 74.7734 73.6953 74.6797V72.6875H78.5469C80.4688 72.6875 81.8359 72.6484 82.6484 72.5703C83.4609 72.4922 84.1016 72.4375 84.5703 72.4062C85.9766 72.2812 87.1172 72.2188 87.9922 72.2188C88.8828 72.2188 89.7969 72.2891 90.7344 72.4297C91.6719 72.5703 92.5 72.8125 93.2188 73.1562C94.7969 73.9062 95.5859 75.0703 95.5859 76.6484C95.5859 77.9141 95.0703 79.0938 94.0391 80.1875C93.0703 81.2188 91.9922 81.8984 90.8047 82.2266L89.5156 81.1953ZM101.867 63.3359L106.133 59.1406L110.305 63.3359L106.133 67.5781L101.867 63.3359ZM99.9219 99.0547L100.742 98.9375C101.414 98.8438 101.961 98.75 102.383 98.6562C102.805 98.5469 103.133 98.3594 103.367 98.0938C103.773 97.6094 103.977 96.5 103.977 94.7656V78.875C103.977 77.0938 103.789 76.0234 103.414 75.6641C103.039 75.2891 102.586 75.0547 102.055 74.9609C101.523 74.8672 100.812 74.7812 99.9219 74.7031V72.6875H112.742V74.7031C111.852 74.7969 111.141 74.8906 110.609 74.9844C110.078 75.0781 109.672 75.2578 109.391 75.5234C108.938 75.9453 108.711 77.0625 108.711 78.875V94.7656C108.711 96.5469 108.852 97.6016 109.133 97.9297C109.414 98.2578 109.758 98.4766 110.164 98.5859C110.586 98.6953 111.141 98.8047 111.828 98.9141L112.742 99.0547V101H99.9219V99.0547ZM129.641 98.5625C132.734 98.5625 135.586 97.5547 138.195 95.5391L139.531 96.8281C137.703 99.0469 135.164 100.516 131.914 101.234C130.883 101.453 129.852 101.562 128.82 101.562C124.773 101.562 121.555 100.062 119.164 97.0625C116.961 94.2656 115.859 90.8281 115.859 86.75C115.859 82.5156 116.977 79.0156 119.211 76.25C121.617 73.2969 124.852 71.8203 128.914 71.8203C130.914 71.8203 132.844 72.2188 134.703 73.0156C134.984 73.1406 135.188 73.2109 135.312 73.2266C136.328 72.9609 136.93 72.3281 137.117 71.3281H138.969V81.3594H137.023C136.18 76.6562 133.594 74.3047 129.266 74.3047C126.484 74.3047 124.398 75.5938 123.008 78.1719C121.805 80.3594 121.203 83.2344 121.203 86.7969C121.203 92.9062 123.055 96.6719 126.758 98.0938C127.586 98.4062 128.547 98.5625 129.641 98.5625Z" fill="#3873DF"/>
</svg>
